<svg xmlns="http://www.w3.org/2000/svg" viewBox="0 0 2154.62 533.85"><defs><style>.cls-1{fill:#190a6b;}.cls-2{fill:#ff5301;}.cls-3{fill:#b0a0ff;}.cls-4{fill:#fff;}.cls-5{fill:#1b0c6c;}.cls-6{fill:#ffc200;}</style></defs><title>Asset 6</title><g id="Layer_2" data-name="Layer 2"><g id="Layer_1-2" data-name="Layer 1"><path class="cls-1" d="M915,212.65a19.85,19.85,0,0,0-19.8-12.72c-9.81.52-15.83,5.17-18.85,15a37.45,37.45,0,0,0-1.91,10.26c-.21,14.77-.09,29.54-.09,44.32h.05c0,15.53-.83,31.12.21,46.58,1.28,19.12,14,24.08,29.19,19.74,9-2.57,14.45-11.85,14.5-23.64.14-28,.2-56.06-.1-84.09A44.46,44.46,0,0,0,915,212.65Z"/><path class="cls-1" d="M962.43,163.25c0-1.47-.14-2.95-.22-4.45H918.4v18.53c-1-.32-1.36-.32-1.55-.51-1.19-1.18-2.42-2.34-3.48-3.63-11-13.28-25.11-18.4-42.13-17.38-19,1.13-34.47,12.74-38.47,31.31-2.16,10-2.64,20.55-2.74,30.86-.33,33.23-.25,66.48-.06,99.71a186.69,186.69,0,0,0,1.77,24.59c2.06,14.8,7.7,27.81,22.11,34.65,16.48,7.82,43.33,7.91,60.25-13.87,1-1.35,2.16-2.65,3.24-4a21.12,21.12,0,0,1,1.06,8c-.21,13.86.2,27.77-.83,41.58-.93,12.5-9.52,18.81-22,17.89-10.72-.79-18.37-7.59-21.1-18.45-.31-1.24-1.74-3.13-2.68-3.15-13.85-.2-27.7-.14-41.93-.14.68,4.19,1.15,8,1.92,11.65,11.19,53.4,64,65,98.74,46,22.5-12.33,31.88-32.65,31.89-57.69Q962.5,284,962.43,163.25Zm-44.09,149c-.06,11.79-5.47,21.07-14.5,23.64-15.23,4.34-27.91-.62-29.19-19.74-1-15.46-.21-31.05-.21-46.58h-.05c0-14.77-.12-29.55.09-44.32A37.45,37.45,0,0,1,876.39,215c3-9.84,9-14.5,18.85-15A19.85,19.85,0,0,1,915,212.65a44.46,44.46,0,0,1,3.21,15.48C918.55,256.16,918.48,284.19,918.35,312.22Z"/><path class="cls-2" d="M66.58,407.08c-15.27-3.86-25.2-16.77-25.2-33q0-149.71,0-299.44V68.33H1.94V75q0,145.71,0,291.44a138.42,138.42,0,0,0,1,18.44c4.65,34.7,34,61.9,69.85,62.44V408.2l1.29-.22A29.61,29.61,0,0,1,66.58,407.08Z"/><path class="cls-3" d="M62.27,447.34h0Z"/><path class="cls-3" d="M68,447.1c.88-.07,1.78-.16,2.67-.27,21.8-2.62,39.57-13.57,51-29.6A77.83,77.83,0,0,1,68,447.1Z"/><path class="cls-3" d="M150.79,46a37.35,37.35,0,0,1,12.67-5.39c2.29-.52,4.61-.87,6.94-1.28A34,34,0,0,0,150.79,46Z"/><path class="cls-3" d="M167.13,0c-.89.06-1.78.13-2.67.23C166.3.1,168.11,0,169.92,0,168.87,0,168,0,167.13,0Z"/><path class="cls-3" d="M170,0l1,0h.68Z"/><path class="cls-1" d="M1682.69,112.25c-11.74-1.92-23.87-1.5-36.16-2.12v106c9.53,0,18.55.52,27.49-.11,17.58-1.25,27.52-9.38,29-26.43,1.52-17.23,1.26-34.73.23-52C1702.54,125,1696.13,114.44,1682.69,112.25Z"/><path class="cls-1" d="M1743.8,129.69c-3.18-22.76-14.27-40.66-34.59-52-12.88-7.21-27.19-8.56-41.62-8.65-20.28-.12-40.57,0-60.86,0h-4.17V378.71h43.64V257.91c7.22,0,13.76.12,20.29,0,12.36-.28,24.78-.67,36.34-5.72,24.23-10.6,37-30.08,41-55.45C1747.31,174.45,1746.92,152,1743.8,129.69ZM1703,189.54c-1.51,17.06-11.45,25.19-29,26.43-8.94.63-18,.11-27.49.11v-106c12.29.63,24.42.21,36.16,2.12,13.44,2.19,19.85,12.77,20.59,25.28C1704.3,154.81,1704.56,172.31,1703,189.54Z"/><path class="cls-1" d="M1923.69,283.09c-10.53,1.23-20.57,4.13-25.87,14.58-4,7.9-4.17,16.5-2.51,25,2.53,13,11,20.06,23,19.85,12.33-.21,21.24-7.53,22.45-20.79,1.13-12.35.24-24.88.24-38.77C1935.18,283,1929.36,282.43,1923.69,283.09Z"/><path class="cls-1" d="M1985.39,217.87a63.52,63.52,0,0,0-15.79-41.49c-23.46-27.35-74.52-27.57-99.79-.6-12.12,12.93-17.51,28.49-18.66,46.39,11.06,0,21.72-.38,32.35.14,6.84.33,12.2-.3,13.3-8.41a1.39,1.39,0,0,1,.17-.42c4.94-9.6,15.11-14.57,26.88-13.13,9.17,1.12,15.23,6.14,16.57,16.15,1.41,10.62,1.23,21.46,1.75,32.45-3.64,0-6.34-.07-9,0-12.44.37-25-.35-37.29,1.42-22.09,3.2-36.92,15.7-42.12,38.09a139,139,0,0,0-2.37,50.87c3.14,22.58,15.77,36.9,36.4,41,17.61,3.52,33.34,0,45.3-14.65,2.49-3,5-6,7.56-9.06l1.12.31v21.7h43.72a17.85,17.85,0,0,0,.27-2.09C1985.67,323.67,1985.84,270.77,1985.39,217.87Zm-44.68,103.88c-1.21,13.26-10.11,20.58-22.45,20.79-12,.2-20.43-6.87-23-19.85-1.66-8.5-1.5-17.1,2.51-25,5.31-10.45,15.35-13.35,25.88-14.58,5.68-.66,11.49-.12,17.26-.12C1940.95,296.86,1941.84,309.39,1940.71,321.74Z"/><path class="cls-1" d="M1185.59,283.16c-10.51,1.25-20.52,4.33-25.61,15-3.75,7.82-3.93,16.26-2.29,24.6,2.56,13,11,20,23,19.82,12.33-.22,21.21-7.54,22.42-20.82,1.13-12.35.24-24.88.24-38.25C1197.62,283.31,1191.52,282.45,1185.59,283.16Z"/><path class="cls-1" d="M1247.72,218.49c-.88-24.29-10.75-44.44-33.7-55.66-17.1-8.36-35.27-9.33-53.47-4.15-29.76,8.48-46.17,35.36-46.68,63.24,1.31.08,2.64.24,4,.24,11.43,0,22.87-.1,34.3.09,3.13.05,4.45-.86,5.35-4,2.51-8.62,8.17-14.64,16.87-17.13,11.09-3.17,25.37-1,27.95,13.9,1.92,11.09,1.7,22.55,2.43,33.86-4.06,0-6.79-.07-9.52,0-12.44.39-25.05-.33-37.28,1.49-21.87,3.26-36.68,15.69-41.76,37.9-4.15,18.14-5.23,36.53-1.63,54.88,3.48,17.72,13,31.05,31,36,19.32,5.33,36.91,2.5,50.37-14.1,2.34-2.89,4.76-5.71,7.15-8.56l1.07.3v21.84h44v-5.64q0-34.76,0-69.52C1248.1,275.19,1248.75,246.81,1247.72,218.49Zm-44.61,103.22c-1.21,13.28-10.09,20.6-22.42,20.82-12,.22-20.42-6.83-23-19.82-1.65-8.34-1.47-16.78,2.29-24.6,5.1-10.62,15.1-13.7,25.61-15,5.92-.71,12,.15,17.75.3C1203.35,296.83,1204.23,309.36,1203.11,321.71Z"/><path class="cls-1" d="M2109.22,158.67l-29.92,136.93-1.22,0-30.33-136.78h-46.59c.47,1.88.8,3.36,1.21,4.81q28.85,100.52,57.7,201c.5,1.73,1.41,3.7,1,5.28-3.58,14.3-7,28.65-11.28,42.76-2.82,9.4-10.17,13.68-19.87,13.89-3.92.08-7.84,0-12,0v41.53c14.55.27,28.73.52,41.76-6.4,17.2-9.14,26.46-24.23,31-42.63q28.41-115.53,56.75-231.08c2.38-9.7,4.72-19.4,7.14-29.34Z"/><path class="cls-1" d="M543.21,209a76.17,76.17,0,0,0-1.91-17.66c-4-16.6-13-29.15-30.49-33.65-21.35-5.51-38.72.67-52.06,18.21-.92,1.21-1.9,2.38-2.85,3.57l-1.16-.45v-20.2H411V378.69h43.92v-6.15c0-46-.08-92.1.1-138.15a89.22,89.22,0,0,1,2.18-19.89c2.36-10.06,8.32-14.09,19.36-14.59,9.28-.42,17.21,4.17,20,12.82a54.63,54.63,0,0,1,2.58,16.56c.19,47.88.11,95.76.11,143.64v5.84h43.88c.07-1.43.16-2.34.16-3.25Q543.3,292.26,543.21,209Z"/><path class="cls-1" d="M1433.41,199.9c-10.56-.36-19.54,5.51-21,15.79-1.64,11.34-1.41,22.95-2,34.66h44.9c-.48-11.53-.27-22.7-1.59-33.68C1452.45,206.29,1444.29,200.27,1433.41,199.9Z"/><path class="cls-1" d="M1498.84,283.24c0-22.11.45-44.24-.36-66.31-.62-17-6.89-32.18-19.52-44-14.71-13.79-32.66-18-52.34-16.94-32.37,1.83-56.52,24.93-58.56,57.27-1.12,17.77-1.11,35.64-1.09,53.46,0,19.35.33,38.71,1.11,58a56.14,56.14,0,0,0,13,34c12.78,15.57,29.71,21.85,49.36,22.88,27.37,1.43,53.45-14.31,63.53-39.15a60.16,60.16,0,0,0,4.59-27.16H1455c-.4,1.69-.75,3.3-1.18,4.9-3.94,14.78-14.73,20.67-29.32,15.9-6.57-2.15-11.7-6.59-12.37-13.39-1.2-12.19-1.14-24.51-1.64-37.46h88A13,13,0,0,0,1498.84,283.24Zm-88.46-32.88c.6-11.72.37-23.32,2-34.66,1.48-10.29,10.46-16.15,21-15.79,10.87.37,19,6.39,20.28,16.78,1.32,11,1.11,22.15,1.59,33.68Z"/><path class="cls-1" d="M712.7,250.65c6.24.27,12.5.12,18.75.12h21.41c0-9.58,0-18.26,0-26.94a33,33,0,0,0-.61-5.44c-2.09-11.89-9.72-18.51-21.25-18.51-11.69,0-20,6.91-21.19,19-1,9.67-.66,19.48-.61,29.22C709.18,249,711.44,250.6,712.7,250.65Z"/><path class="cls-1" d="M709.49,285.21h87.06a15.55,15.55,0,0,0,.39-2.26c0-22,.45-43.93-.37-65.86-.65-17.47-7.14-33.06-20.41-45-15-13.49-33-17.47-52.66-16-30.16,2.22-52.8,22.52-56.73,52.49-1.85,14.13-1.7,28.58-1.71,42.88,0,23.92-.3,47.89,1.09,71.75,1.83,31.27,20.92,52.1,51.79,57.21,25.24,4.18,47.56-2.08,64.68-22.23,10.42-12.26,14.41-26.73,14.21-43H753.61c-1.84,4.84-2.93,9.41-5.23,13.25-1.76,2.94-4.64,6-7.73,7.23-16.54,6.81-31.3-3.09-31.62-20.89-.15-8.54,0-17.08,0-25.61A36.09,36.09,0,0,1,709.49,285.21Zm.3-66.33c1.19-12.08,9.5-19,21.19-19,11.54,0,19.16,6.62,21.25,18.51a33,33,0,0,1,.61,5.44c.06,8.68,0,17.36,0,26.94H731.45c-6.25,0-12.51.14-18.75-.12-1.26-.05-3.52-1.65-3.53-2.55C709.12,238.36,708.83,228.55,709.78,218.88Z"/><path class="cls-1" d="M1342.17,337c-10-.66-14.85-5.57-15.65-15.54-.24-3-.39-6.09-.39-9.14q0-56.72,0-113.45v-5.9h27.07V158.47h-27.07v-6.15c0-18.91-.07-37.82.06-56.72,0-3.36-.92-4.51-4.38-4.46-12,.19-24.09.06-36.14.09-1.17,0-2.33.24-3.92.42v67h-21.48v34.54h21.69V199c0,42.09-.17,84.17.07,126.26.12,21.38,7.24,39.27,28,48.9,13.79,6.39,28.52,4.78,43.25,4.75V337C1349.41,337,1345.78,337.21,1342.17,337Z"/><path class="cls-1" d="M640.66,337c-10.25-.57-15.26-5.47-16.06-15.62-.24-3-.39-6.09-.39-9.14q0-56.72,0-113.45c0-1.78,0-3.56,0-5.88h27.05V158.25H624.19v-6c0-18.76-.1-37.51.08-56.27,0-3.81-1.11-5-4.91-4.88-11.58.22-23.18.07-34.77.09-1.46,0-2.91.16-4.82.27v67.16H558.17v34.23H580V199c0,42.09-.18,84.17.07,126.26.13,21.18,7.11,39,27.65,48.67,13.92,6.58,28.78,4.95,43.59,4.93V337C647.59,337,644.11,337.18,640.66,337Z"/><path class="cls-1" d="M1833.17,338.75c-9.72-2.31-13.63-6.93-14.22-16.88-.19-3.19-.24-6.4-.24-9.6q0-118.51,0-237v-6h-44.33c0,2.54,0,4.51,0,6.49q0,119,0,237.93a205,205,0,0,0,.91,21c1.66,16,7.19,30,21.91,38.55,13.17,7.66,27.83,7.82,42.79,8.43V340.1C1837.61,339.63,1835.37,339.27,1833.17,338.75Z"/><path class="cls-1" d="M326.13,69.33v309.4h43.64V69.33Z"/><path class="cls-1" d="M1043.18,182.14V158.66H999.52V378.74h43.81v-6q0-54.43,0-108.87c0-7.47,0-15,.43-22.4,1.33-22.26,17.77-39.23,39.93-40.93,6-.46,12.19.47,18.22.76V156C1078.3,154.73,1060.67,166.82,1043.18,182.14Z"/><path class="cls-1" d="M1798,428.88v78.39c-1.66-2.1-2.53-3.15-3.36-4.24-17.23-22.7-34.74-45.21-51.5-68.25-4.53-6.23-9.38-7-15.93-5.7V532.47h14V454.32c1.65,2,2.53,3,3.34,4.1,17.14,22.58,34.57,45,51.21,67.9,4.61,6.36,9.54,7.29,16.3,5.95V428.88Z"/><path class="cls-1" d="M1205.45,439.74c-11.65-.55-22.09,2.68-28.17,13.34-9.76,17.1-10,35.38-1.39,52.58,10.76,21.54,42,21.82,54.59,1.26,4.94-8.07,5.92-17.15,7-26.62-1.67-7.36-2.56-15-5.2-22C1227.77,446.25,1218.13,440.34,1205.45,439.74Z"/><path class="cls-1" d="M1251.49,474.61c-1.32-25.44-15.89-42.91-40.12-46.41-18.42-2.66-34.93,1.81-46.56,17.69-7.4,10.1-9.5,21.9-9.75,35.66.14,11,2.15,23.11,9.67,33.54,11.63,16.12,28.14,20.53,46.83,18.09,18.26-2.39,30.49-12.8,36.65-30.18C1251.46,493.81,1252,484.26,1251.49,474.61Zm-21,32.3c-12.58,20.56-43.82,20.28-54.59-1.26-8.6-17.2-8.37-35.48,1.39-52.58,6.08-10.65,16.52-13.89,28.17-13.34,12.68.6,22.33,6.51,26.85,18.55,2.63,7,3.52,14.65,5.2,22C1236.39,489.76,1235.41,498.85,1230.48,506.92Z"/><path class="cls-1" d="M1655.6,439.72c-11.46-.49-21.8,2.61-27.87,13-10,17.2-10.23,35.63-1.53,53,10.91,21.71,42.42,21.67,54.81.71,4.72-8,5.66-16.93,5.66-26l1.11-.24c-1.74-7.5-2.63-15.33-5.42-22.42C1677.74,446,1668.1,440.26,1655.6,439.72Z"/><path class="cls-1" d="M1701.74,474.62c-1.32-25.44-15.89-42.91-40.12-46.41-18.42-2.66-34.93,1.81-46.56,17.68-7.4,10.1-9.5,21.9-9.76,35.67.13,11,2.14,23.1,9.67,33.53,11.63,16.12,28.14,20.53,46.83,18.09,18.26-2.39,30.5-12.8,36.66-30.17C1701.71,493.81,1702.24,484.26,1701.74,474.62Zm-15.07,5.81c0,9.09-.94,18-5.66,26-12.4,21-43.91,21-54.81-.71-8.7-17.33-8.48-35.75,1.53-53,6.07-10.44,16.41-13.54,27.87-13,12.5.54,22.13,6.3,26.76,18,2.79,7.09,3.68,14.92,5.42,22.42Z"/><path class="cls-1" d="M1441.94,432.7c0-1.3-.2-2.6-.31-3.91h-14.28v5.44c0,18.9,0,37.81,0,56.71,0,7.22-.76,14.35-5,20.55-6.2,9.08-19.36,12.64-32.63,8.92-10.42-2.92-17-11.5-17.23-23.66-.33-20.88-.19-41.77-.25-62.65,0-1.75,0-3.5,0-5.1h-14.15c0,23.68-.7,47,.22,70.29.73,18.41,11.93,29.9,30.05,33.44a58.94,58.94,0,0,0,26.73-.86c10.28-2.74,18.68-8.29,22.28-18.46a76,76,0,0,0,4.39-22.62C1442.35,471.44,1442,452.06,1441.94,432.7Z"/><path class="cls-1" d="M1120.24,482.18a135.55,135.55,0,0,0-14.62-5.1c-7.69-2.38-15.55-4.27-23.14-6.91-5.27-1.84-9.12-5.43-9.46-11.65-.37-6.76,2.32-11.86,8.13-15.21s12-4,18.55-3.59a47.45,47.45,0,0,1,28.35,11.5,68.52,68.52,0,0,1,3.66-7.21c2.06-3.06,1-5.15-1.79-6.59-5.12-2.61-10.13-5.83-15.58-7.34-15.33-4.24-30.45-4.08-44.34,5.12-14.91,9.87-18,36.8,3.79,46.22a119.07,119.07,0,0,0,13.32,4.68c7.72,2.3,15.58,4.13,23.25,6.6,5.69,1.83,10,5.38,10.16,12.05.18,6.4-3.28,12.24-10,14.29a61.24,61.24,0,0,1-17.88,2.48,48.55,48.55,0,0,1-30.95-11.28,63,63,0,0,1-3.48,6.85c-2.15,3.2-1,5,1.85,7a56.38,56.38,0,0,0,26.9,9.32c12.76,1.16,25.21.41,36.54-6.83C1137.54,517.54,1142.39,491.93,1120.24,482.18Z"/><path class="cls-1" d="M1914.94,501.68c-.71-10-7-15.94-15.5-19.74a121,121,0,0,0-14.22-4.89c-7.27-2.21-14.72-3.87-21.86-6.42-8-2.86-10.75-6.9-10.66-13.59.09-7.06,3.9-12.29,11.11-15.17a34.78,34.78,0,0,1,23.32-.87c7.15,2.16,13.88,5.7,21.33,8.87a59.77,59.77,0,0,1,3.19-6.36c1.6-2.53,1-4.35-1.38-5.57-5.37-2.78-10.59-6.27-16.32-7.86-15.15-4.22-30.13-4-44,4.93-15.19,9.82-18.42,37.14,3.62,46.42,6.55,2.76,13.58,4.34,20.38,6.51,6.5,2.08,13.17,3.78,19.43,6.45,5.66,2.41,7.48,7.09,6.47,13.19-1.16,7-6.7,12-15.42,13.37-15.59,2.43-30-.54-43.13-10.67a68.52,68.52,0,0,1-3.52,6.91c-2,3-1.16,4.74,1.62,6.66a55.89,55.89,0,0,0,26.83,9.5c12.6,1.22,25.06.75,36.18-6.39C1911.6,521.06,1915.7,512.47,1914.94,501.68Z"/><path class="cls-1" d="M1460.68,428.9v12.26h35v91.33h15V441h34.89V428.9Z"/><path class="cls-1" d="M1291.52,520.2V429h-14.67v103.4h65.07V520.2Z"/><path class="cls-1" d="M1565.31,428.83V532.37h14.31V428.83Z"/><path class="cls-2" d="M22.15,10.11C10.71,9.64.38,19.56,0,31.38c-.36,11.46,9.65,21.77,21.39,22,11.53.24,21.77-9.83,21.89-21.53C43.41,20.47,33.83,10.6,22.15,10.11Z"/><path class="cls-4" d="M918.24,228.13A44.46,44.46,0,0,0,915,212.65a19.85,19.85,0,0,0-19.8-12.72c-9.81.52-15.83,5.17-18.85,15a37.45,37.45,0,0,0-1.91,10.26c-.21,14.77-.09,29.54-.09,44.32h.05c0,15.53-.83,31.12.21,46.58,1.28,19.12,14,24.08,29.19,19.74,9-2.57,14.45-11.85,14.5-23.64C918.48,284.19,918.55,256.16,918.24,228.13Z"/><path class="cls-4" d="M1703.28,137.52c-.74-12.51-7.15-23.08-20.59-25.28-11.74-1.92-23.87-1.5-36.16-2.12v106c9.53,0,18.55.52,27.49-.11,17.58-1.25,27.52-9.38,29-26.43C1704.56,172.31,1704.3,154.81,1703.28,137.52Z"/><path class="cls-4" d="M1940.95,283c-5.77,0-11.59-.54-17.26.12-10.53,1.23-20.57,4.13-25.87,14.58-4,7.9-4.17,16.5-2.51,25,2.53,13,11,20.06,23,19.85,12.33-.21,21.24-7.53,22.45-20.79C1941.84,309.39,1940.95,296.86,1940.95,283Z"/><path class="cls-4" d="M1203.35,283.46c-5.72-.15-11.83-1-17.75-.3-10.51,1.25-20.52,4.33-25.61,15-3.75,7.82-3.93,16.26-2.29,24.6,2.56,13,11,20,23,19.82,12.33-.22,21.21-7.54,22.42-20.82C1204.23,309.36,1203.35,296.83,1203.35,283.46Z"/><path class="cls-4" d="M1453.69,216.68c-1.24-10.38-9.41-16.41-20.28-16.78-10.56-.36-19.54,5.51-21,15.79-1.64,11.34-1.41,22.95-2,34.66h44.9C1454.8,238.83,1455,227.66,1453.69,216.68Z"/><path class="cls-4" d="M752.83,223.84a33,33,0,0,0-.61-5.44c-2.09-11.89-9.72-18.51-21.25-18.51-11.69,0-20,6.91-21.19,19-1,9.67-.66,19.48-.61,29.22,0,.9,2.26,2.5,3.53,2.55,6.24.27,12.5.12,18.75.12h21.41C752.86,241.2,752.9,232.52,752.83,223.84Z"/><path class="cls-4" d="M1232.3,458.28c-4.52-12-14.17-17.95-26.85-18.55-11.65-.55-22.09,2.68-28.17,13.34-9.76,17.1-10,35.38-1.39,52.58,10.76,21.54,42,21.82,54.59,1.26,4.94-8.07,5.92-17.15,7-26.62C1235.82,472.94,1234.93,465.28,1232.3,458.28Z"/><path class="cls-4" d="M1682.36,457.77c-4.62-11.74-14.26-17.5-26.76-18-11.46-.49-21.8,2.61-27.87,13-10,17.2-10.23,35.63-1.53,53,10.91,21.71,42.42,21.67,54.81.71,4.72-8,5.66-16.93,5.66-26l1.11-.24C1686,472.69,1685.15,464.85,1682.36,457.77Z"/><path class="cls-5" d="M183,0l-1,0a.11.11,0,0,0-.08,0c-1.81,0-3.62.09-5.46.26A77.77,77.77,0,0,0,123,30c-9,12.55-14,28.24-14,45.5q0,148.21,0,296.44a34.8,34.8,0,0,1-15.18,29.35l-.06,0A34,34,0,0,1,74.09,408l-1.29.22v39.13h2c1.7,0,3.41-.1,5.14-.25a77.83,77.83,0,0,0,53.64-29.87.36.36,0,0,0,.07-.1c8.87-12.51,13.86-28.11,13.86-45.25V75.44c0-12.35,5.74-23,15.21-29.37l0,0a34,34,0,0,1,19.61-6.67l1.28-.22V0Z"/><path class="cls-3" d="M62.83,447.35c.93,0,1.72,0,2.5,0s1.76-.13,2.64-.22C66.24,447.25,64.53,447.33,62.83,447.35Z"/><path class="cls-6" d="M254.51,80.91a138.33,138.33,0,0,0-1-18.44C248.89,27.76,219.56.57,183.69,0V39.15l-1.28.22a29.54,29.54,0,0,1,7.5.9c15.27,3.87,25.2,16.78,25.2,33q0,149.71,0,299.44V379h39.43v-6.68Q254.55,226.63,254.51,80.91Z"/><path class="cls-6" d="M235.09,394c-11.53-.24-21.77,9.83-21.9,21.52-.12,11.41,9.47,21.28,21.15,21.76,11.44.48,21.77-9.45,22.14-21.26C256.84,404.52,246.83,394.21,235.09,394Z"/></g></g></svg>