<svg width="58" height="58" xmlns="http://www.w3.org/2000/svg"><defs><linearGradient x1="19.469%" y1="12.15%" x2="34.172%" y2="30.76%" id="a"><stop stop-color="#B0A4F1" offset="0%"/><stop stop-color="#7C6ADD" offset="100%"/></linearGradient></defs><g fill="none" fill-rule="evenodd"><circle fill="url(#a)" cx="29.129" cy="29.129" r="29.129"/><path fill="#C4BAF6" d="M29.13 42.194l-13.683 6.743 2.21-15.046L6.992 23.013l15.049-2.555L29.13 6.99l7.09 13.467 15.048 2.555L40.6 33.891l2.21 15.047z"/><path fill="#B0A5EE" d="M29.13 6.991l7.573 12.817-7.574 10.487zM6.991 22.847l14.634-2.733 7.264 10.703z"/><path fill="#CAC1F9" d="M29.332 7.059l-7.796 12.683 7.39 10.617z"/><path fill="#B0A5EE" d="M51.163 22.721L41.51 34.055l-12.38-3.747zM42.884 48.765l-13.762-5.678-.263-12.933z"/><path fill="#C4BAF6" d="M51.299 22.89l-14.585-2.987-7.45 10.575z"/><path fill="#C4BAF6" d="M42.714 48.684L41.05 33.89l-12.36-3.817z"/><path fill="#B0A5EE" d="M15.46 48.663l1.664-14.794 12.36-3.817z"/><path fill="#C9C0F6" d="M15.541 48.55l13.556-6.155-.19-12.934z"/></g></svg>