<svg xmlns="http://www.w3.org/2000/svg" xmlns:xlink="http://www.w3.org/1999/xlink" viewBox="0 0 201.02 201.02"><defs><style>.cls-1{fill:#1b0b64;}.cls-2{stroke:#34169f;fill:url(#linear-gradient);}.cls-2,.cls-3{stroke-miterlimit:10;}.cls-3{fill:#b0a5ee;stroke:#b0a5ee;}.cls-4{fill:#fcfcfc;}</style><linearGradient id="linear-gradient" x1="0.51" y1="100.51" x2="200.51" y2="100.51" gradientTransform="translate(201.02) rotate(90)" gradientUnits="userSpaceOnUse"><stop offset="0" stop-color="#34169f"/><stop offset="1" stop-color="#1b0b64"/></linearGradient></defs><title>Contact Us Icon</title><g id="Layer_2" data-name="Layer 2"><g id="Layer_1-2" data-name="Layer 1"><circle class="cls-1" cx="100.49" cy="100.5" r="100"/><circle class="cls-2" cx="100.51" cy="100.51" r="100" transform="translate(-39.47 125.19) rotate(-55)"/><path class="cls-3" d="M162.49,135.66c.82-2.57.19-5.71-2.13-7.29-8.46-5.76-22.57-13.72-30.15-16.13a4,4,0,0,0-3.9.84c-2,1.84-5.71,5.14-9.13,8-.48.4-.8.49-1.34.17,0,0-28.25-16.51-31.74-32.77A3.08,3.08,0,0,1,85,85.62a32.35,32.35,0,0,0,5.43-6.88,7.35,7.35,0,0,0,.32-6.38c-2.56-6.07-9.3-21.3-15.16-28.06a5.75,5.75,0,0,0-4.34-2,5.07,5.07,0,0,0-3.33,1.25L57.19,52.87C50.83,58.41,44.36,62,43.72,70.81c-.46,6.3,1.11,12.65,3.4,18.48,8.78,22.36,27.83,40.46,45.71,55.67,9,7.68,21.89,13.79,33.68,15.27,5.32.67,12.6.62,16.9-3.08a130.4,130.4,0,0,0,9.66-9.38c3.14-3.33,7.6-7.36,9.28-11.69Q162.43,135.87,162.49,135.66Z"/><path class="cls-4" d="M154.68,136s-.26.5-.76,1.33-1.22,2-2.19,3.38l-1.57,2.19c-.57.76-1.16,1.59-1.85,2.38s-1.38,1.62-2.11,2.44-1.49,1.64-2.31,2.42-1.69,1.5-2.57,2.19c-.46.33-.91.67-1.37,1s-1,.58-1.46.83a11.12,11.12,0,0,1-1.56.57c-.49.12-1,.23-1.44.33-1,.21-1.86.34-2.7.45a20.1,20.1,0,0,1-4.08.08,8.31,8.31,0,0,1-1.53-.25l0-.1a10.1,10.1,0,0,0,1.51.08,23.65,23.65,0,0,0,4-.4c.81-.15,1.69-.34,2.61-.58a15.16,15.16,0,0,0,2.81-1c.45-.24.89-.53,1.35-.8s.86-.64,1.29-1c.84-.69,1.67-1.41,2.46-2.18s1.57-1.56,2.32-2.34,1.46-1.59,2.14-2.37c1.36-1.56,2.59-3.06,3.61-4.36,2.06-2.6,3.34-4.4,3.34-4.4Z"/></g></g></svg>