<svg width="65" height="65" xmlns="http://www.w3.org/2000/svg"><defs><linearGradient x1="38.723%" y1="30.445%" x2="22.834%" y2="8.025%" id="a"><stop stop-color="#FFC200" offset="0%"/><stop stop-color="#FDD75F" offset="100%"/></linearGradient></defs><g transform="translate(3 2)" fill="none" fill-rule="evenodd"><circle fill="url(#a)" cx="29.129" cy="29.129" r="29.129"/><path d="M33.499 14.649l-1.597 1.163v12.204l9.649 15.893a2.813 2.813 0 0 1-2.405 4.272H19.638a2.812 2.812 0 0 1-2.462-4.173l8.871-16.053c.026-3.287.026-5.594 0-6.919-.04-2.156-.192-3.973-.135-5.278.02-.426-1.536-.798-1.461-1.109.695-.04 4.066-.168 4.947 0 .598.114 1.965.114 4.101 0z" fill="#FEE9A7"/><circle stroke="#FEE9A7" stroke-width="1.125" cx="30.586" cy="10.195" r="1.456"/><circle stroke="#FEE9A7" stroke-width="1.125" cx="26.508" cy="6.7" r="1.456"/><path d="M41.881 41.916c-2.063 1.095-3.526 1.567-4.387 1.417-3.15-2.204-6.074-2.558-8.774-1.063-3.245 1.338-5.27 2.007-6.074 2.007-.804 0-2.041-.787-3.712-2.36" stroke="#FFC200" stroke-width="1.688" stroke-linecap="square"/></g></svg>