<svg xmlns="http://www.w3.org/2000/svg" viewBox="0 0 256.49 447.36"><defs><style>.cls-1{fill:#ff5301;}.cls-2{fill:#b0a0ff;}.cls-3{fill:#1b0c6c;}.cls-4{fill:#ffc200;}</style></defs><title>App Logo</title><g id="Layer_2" data-name="Layer 2"><g id="Layer_1-2" data-name="Layer 1"><path class="cls-1" d="M66.58,407.08c-15.27-3.86-25.2-16.77-25.2-33q0-149.71,0-299.44V68.33H1.94V75q0,145.71,0,291.44a138.42,138.42,0,0,0,1,18.44c4.65,34.7,34,61.9,69.85,62.44V408.2l1.29-.22A29.61,29.61,0,0,1,66.58,407.08Z"/><path class="cls-2" d="M62.27,447.34h0Z"/><path class="cls-2" d="M68,447.1c.88-.07,1.78-.16,2.67-.27,21.8-2.62,39.57-13.57,51-29.6A77.83,77.83,0,0,1,68,447.1Z"/><path class="cls-2" d="M150.79,46a37.35,37.35,0,0,1,12.67-5.39c2.29-.52,4.61-.87,6.94-1.28A34,34,0,0,0,150.79,46Z"/><path class="cls-2" d="M167.13,0c-.89.06-1.78.13-2.67.23C166.3.1,168.11,0,169.92,0,168.87,0,168,0,167.13,0Z"/><path class="cls-2" d="M170,0l1,0h.68Z"/><path class="cls-1" d="M22.15,10.11C10.71,9.64.38,19.56,0,31.38c-.36,11.46,9.65,21.77,21.39,22,11.53.24,21.77-9.83,21.89-21.53C43.41,20.47,33.83,10.6,22.15,10.11Z"/><path class="cls-3" d="M183,0l-1,0a.11.11,0,0,0-.08,0c-1.81,0-3.62.09-5.46.26A77.77,77.77,0,0,0,123,30c-9,12.55-14,28.24-14,45.5q0,148.21,0,296.44a34.8,34.8,0,0,1-15.18,29.35l-.06,0A34,34,0,0,1,74.09,408l-1.29.22v39.13h2c1.7,0,3.41-.1,5.14-.25a77.83,77.83,0,0,0,53.64-29.87.36.36,0,0,0,.07-.1c8.87-12.51,13.86-28.11,13.86-45.25V75.44c0-12.35,5.74-23,15.21-29.37l0,0a34,34,0,0,1,19.61-6.67l1.28-.22V0Z"/><path class="cls-2" d="M62.83,447.35c.93,0,1.72,0,2.5,0s1.76-.13,2.64-.22C66.24,447.25,64.53,447.33,62.83,447.35Z"/><path class="cls-4" d="M254.51,80.91a138.33,138.33,0,0,0-1-18.44C248.89,27.76,219.56.57,183.69,0V39.15l-1.28.22a29.54,29.54,0,0,1,7.5.9c15.27,3.87,25.2,16.78,25.2,33q0,149.71,0,299.44V379h39.43v-6.68Q254.55,226.63,254.51,80.91Z"/><path class="cls-4" d="M235.09,394c-11.53-.24-21.77,9.83-21.9,21.52-.12,11.41,9.47,21.28,21.15,21.76,11.44.48,21.77-9.45,22.14-21.26C256.84,404.52,246.83,394.21,235.09,394Z"/></g></g></svg>